<svg width="23" height="18" viewBox="0 0 23 18" fill="none" xmlns="http://www.w3.org/2000/svg">
<path d="M11.6102 5.22286L4.59289 11.0024V17.2402C4.59289 17.4017 4.65705 17.5566 4.77126 17.6708C4.88546 17.785 5.04036 17.8492 5.20187 17.8492L9.46697 17.8381C9.62795 17.8373 9.78207 17.7728 9.89561 17.6587C10.0092 17.5446 10.0729 17.3902 10.0729 17.2292V13.5864C10.0729 13.4249 10.1371 13.27 10.2513 13.1558C10.3655 13.0415 10.5204 12.9774 10.6819 12.9774H13.1178C13.2793 12.9774 13.4342 13.0415 13.5484 13.1558C13.6626 13.27 13.7267 13.4249 13.7267 13.5864V17.2265C13.7265 17.3066 13.7421 17.386 13.7726 17.4601C13.803 17.5342 13.8479 17.6016 13.9044 17.6583C13.961 17.7151 14.0282 17.7601 14.1022 17.7908C14.1762 17.8216 14.2556 17.8374 14.3357 17.8374L18.5993 17.8492C18.7608 17.8492 18.9157 17.785 19.0299 17.6708C19.1441 17.5566 19.2083 17.4017 19.2083 17.2402V10.9982L12.1925 5.22286C12.11 5.15638 12.0073 5.12012 11.9013 5.12012C11.7954 5.12012 11.6927 5.15638 11.6102 5.22286V5.22286ZM22.6947 9.15113L19.5128 6.52835V1.25654C19.5128 1.1354 19.4646 1.01923 19.379 0.933578C19.2933 0.847924 19.1772 0.799805 19.056 0.799805H16.9246C16.8035 0.799805 16.6873 0.847924 16.6017 0.933578C16.516 1.01923 16.4679 1.1354 16.4679 1.25654V4.02014L13.0603 1.21657C12.7333 0.947473 12.3229 0.800343 11.8994 0.800343C11.4759 0.800343 11.0656 0.947473 10.7386 1.21657L1.10423 9.15113C1.05798 9.18935 1.01972 9.23632 0.991627 9.28934C0.963535 9.34236 0.946165 9.40039 0.94051 9.46012C0.934855 9.51986 0.941025 9.58012 0.958668 9.63747C0.976311 9.69482 1.00508 9.74813 1.04333 9.79436L2.01389 10.9742C2.05204 11.0206 2.09896 11.059 2.15197 11.0873C2.20498 11.1155 2.26304 11.133 2.32282 11.1388C2.38261 11.1445 2.44294 11.1384 2.50037 11.1209C2.55779 11.1033 2.61119 11.0745 2.6575 11.0363L11.6102 3.66237C11.6927 3.59588 11.7954 3.55963 11.9013 3.55963C12.0073 3.55963 12.11 3.59588 12.1925 3.66237L21.1456 11.0363C21.1918 11.0745 21.2451 11.1033 21.3025 11.121C21.3598 11.1386 21.4201 11.1448 21.4798 11.1391C21.5395 11.1335 21.5976 11.1161 21.6506 11.088C21.7036 11.0599 21.7506 11.0216 21.7888 10.9754L22.7594 9.7955C22.7976 9.74901 22.8262 9.69542 22.8437 9.63782C22.8611 9.58022 22.867 9.51974 22.861 9.45986C22.8549 9.39998 22.8372 9.34188 22.8086 9.2889C22.7801 9.23591 22.7413 9.18909 22.6947 9.15113V9.15113Z" fill="currentColor"/>
</svg>