<svg xmlns="http://www.w3.org/2000/svg" viewBox="0 0 171.08 48.54"><defs><style>.cls-1{fill:#fff;}</style></defs><g id="Calque_2" data-name="Calque 2"><g id="Calque_1-2" data-name="Calque 1"><path class="cls-1" d="M25.6,16.42a16.62,16.62,0,0,1,6.1,6.16,17.26,17.26,0,0,1,2.24,8.72V45a3.06,3.06,0,0,1-3.14,3.15A3.06,3.06,0,0,1,27.66,45V42.75a15.16,15.16,0,0,1-11.89,5.61,15,15,0,0,1-8-2.22A15.61,15.61,0,0,1,2.06,40,18.42,18.42,0,0,1,0,31.3a17.35,17.35,0,0,1,2.22-8.72,16.19,16.19,0,0,1,6.13-6.16A17,17,0,0,1,17,14.17,16.75,16.75,0,0,1,25.6,16.42Zm-3,24.89a10.72,10.72,0,0,0,3.91-4.13,12.23,12.23,0,0,0,1.42-5.88,12.42,12.42,0,0,0-1.42-5.92A10.54,10.54,0,0,0,17,19.71a10.6,10.6,0,0,0-5.57,1.51,10.8,10.8,0,0,0-3.94,4.16A12.1,12.1,0,0,0,6,31.3a11.92,11.92,0,0,0,1.45,5.88,10.79,10.79,0,0,0,3.94,4.13A10.6,10.6,0,0,0,17,42.82,10.64,10.64,0,0,0,22.58,41.31Z"/><path class="cls-1" d="M69.52,16.39a15.61,15.61,0,0,1,5.67,6.13,18.44,18.44,0,0,1,2.06,8.71A17.35,17.35,0,0,1,75,40a16.12,16.12,0,0,1-6.13,6.16,17,17,0,0,1-8.65,2.25,16.75,16.75,0,0,1-8.6-2.25A16.52,16.52,0,0,1,45.56,40a17.17,17.17,0,0,1-2.25-8.72V3.14A3.06,3.06,0,0,1,44.2.86a3.41,3.41,0,0,1,4.53,0,3.12,3.12,0,0,1,.86,2.28V19.78a15.5,15.5,0,0,1,19.93-3.39Zm-3.7,24.92a10.9,10.9,0,0,0,4-4.16,12.2,12.2,0,0,0,1.44-5.92,12,12,0,0,0-1.44-5.88,11,11,0,0,0-4-4.13,11,11,0,0,0-11.15,0,10.79,10.79,0,0,0-3.91,4.13,12.23,12.23,0,0,0-1.42,5.88,12.42,12.42,0,0,0,1.42,5.92,10.54,10.54,0,0,0,9.49,5.67A10.6,10.6,0,0,0,65.82,41.31Z"/><path class="cls-1" d="M93.08,46.17a15.41,15.41,0,0,1-6-6.06,17.83,17.83,0,0,1-2.16-8.81,18,18,0,0,1,2.16-8.88,15.41,15.41,0,0,1,6-6.06,17.64,17.64,0,0,1,8.81-2.19,17.32,17.32,0,0,1,8.72,2.19,15.7,15.7,0,0,1,6,6.06,17.77,17.77,0,0,1,2.19,8.88,17.83,17.83,0,0,1-2.16,8.81,15.49,15.49,0,0,1-6,6.06,17.42,17.42,0,0,1-8.78,2.19A17.64,17.64,0,0,1,93.08,46.17Zm14.45-4.83a10.22,10.22,0,0,0,3.88-4.1,12.43,12.43,0,0,0,1.39-5.94,12.65,12.65,0,0,0-1.39-6,10.17,10.17,0,0,0-3.88-4.13,11.47,11.47,0,0,0-11.27,0,10.31,10.31,0,0,0-3.91,4.13,12.43,12.43,0,0,0-1.42,6,12.22,12.22,0,0,0,1.42,5.94,10.36,10.36,0,0,0,3.91,4.1,11.47,11.47,0,0,0,11.27,0Z"/><path class="cls-1" d="M154.32,45.53a2.87,2.87,0,0,1-1.11,2.28,3.11,3.11,0,0,1-2,.73,2.69,2.69,0,0,1-2.22-1.1L137.32,33l-3.08,2.71V45.1A3.1,3.1,0,0,1,129,47.28a3,3,0,0,1-.83-2.18V3A3,3,0,0,1,129,.83a3.29,3.29,0,0,1,4.37,0A3,3,0,0,1,134.24,3V28.09l15-13.37a2.61,2.61,0,0,1,1.91-.8,2.55,2.55,0,0,1,2.09,1,2.61,2.61,0,0,1,.8,1.91,2.57,2.57,0,0,1-1,2.09L141.69,29l11.95,14.66A2.64,2.64,0,0,1,154.32,45.53Z"/><path class="cls-1" d="M164.14,7.73a3.9,3.9,0,0,1-1.2-2.86A3.92,3.92,0,0,1,164.14,2a4,4,0,0,1,5.73,0,3.93,3.93,0,0,1,1.21,2.87,3.91,3.91,0,0,1-1.21,2.86,4,4,0,0,1-5.73,0Zm.62,39.49a3,3,0,0,1-.89-2.25V17.56a3,3,0,0,1,.89-2.28,3.13,3.13,0,0,1,5.39,2.28V45a3.11,3.11,0,0,1-.86,2.25,3.33,3.33,0,0,1-4.53,0Z"/></g></g></svg>