<svg width="30" height="22" viewBox="0 0 30 22" fill="none" xmlns="http://www.w3.org/2000/svg">
<path d="M21.2956 7.87606C21.2956 3.55016 16.7397 0.0463867 11.117 0.0463867C5.49437 0.0463867 0.938477 3.55016 0.938477 7.87606C0.938477 9.55454 1.62847 11.1009 2.79802 12.3781C2.14229 13.856 1.06082 15.0304 1.04613 15.0451C0.938477 15.1577 0.909115 15.324 0.972731 15.4708C1.03635 15.6176 1.17337 15.7057 1.32996 15.7057C3.121 15.7057 4.60374 15.1038 5.67053 14.4823C7.24625 15.2506 9.1107 15.7057 11.117 15.7057C16.7397 15.7057 21.2956 12.202 21.2956 7.87606ZM27.2657 18.6419C28.4353 17.3695 29.1253 15.8183 29.1253 14.1398C29.1253 10.866 26.5072 8.06201 22.7979 6.89246C22.842 7.21543 22.8616 7.5433 22.8616 7.87606C22.8616 13.0583 17.5912 17.2717 11.117 17.2717C10.5885 17.2717 10.0747 17.2325 9.56579 17.1787C11.1073 19.9925 14.7285 21.9695 18.9467 21.9695C20.9531 21.9695 22.8175 21.5193 24.3932 20.7461C25.46 21.3676 26.9428 21.9695 28.7338 21.9695C28.8904 21.9695 29.0323 21.8765 29.091 21.7346C29.1547 21.5927 29.1253 21.4263 29.0176 21.3088C29.0029 21.2942 27.9215 20.1246 27.2657 18.6419Z" fill="currentColor"/>
</svg>
