<svg width="21" height="22" viewBox="0 0 21 22" fill="none" xmlns="http://www.w3.org/2000/svg">
<path d="M20.2099 13.2174L18.3858 12.1641C18.5699 11.1707 18.5699 10.1516 18.3858 9.1582L20.2099 8.10487C20.4197 7.98498 20.5139 7.73663 20.4454 7.50541C19.9701 5.98107 19.1608 4.60232 18.1032 3.45478C17.9405 3.27922 17.675 3.23641 17.4695 3.3563L15.6454 4.40963C14.879 3.75023 13.9969 3.24069 13.042 2.9067V0.804314C13.042 0.564531 12.8751 0.35472 12.6395 0.303338C11.0681 -0.0477739 9.45814 -0.0306465 7.96377 0.303338C7.72827 0.35472 7.56128 0.564531 7.56128 0.804314V2.91098C6.61071 3.24925 5.72864 3.75879 4.95791 4.41391L3.13813 3.36058C2.92831 3.24069 2.66712 3.27922 2.50441 3.45906C1.44679 4.60232 0.637525 5.98107 0.16224 7.50969C0.0894485 7.74091 0.187931 7.98926 0.397742 8.10915L2.22181 9.16249C2.03769 10.1559 2.03769 11.175 2.22181 12.1683L0.397742 13.2217C0.187931 13.3416 0.0937303 13.5899 0.16224 13.8211C0.637525 15.3455 1.44679 16.7242 2.50441 17.8718C2.66712 18.0473 2.9326 18.0901 3.13813 17.9703L4.96219 16.9169C5.72864 17.5763 6.61071 18.0859 7.56556 18.4198V20.5265C7.56556 20.7663 7.73255 20.9761 7.96805 21.0275C9.53949 21.3786 11.1495 21.3615 12.6438 21.0275C12.8793 20.9761 13.0463 20.7663 13.0463 20.5265V18.4198C13.9969 18.0816 14.879 17.572 15.6497 16.9169L17.4738 17.9703C17.6836 18.0901 17.9448 18.0516 18.1075 17.8718C19.1651 16.7285 19.9744 15.3498 20.4496 13.8211C20.5139 13.5856 20.4197 13.3373 20.2099 13.2174V13.2174ZM10.3017 14.0866C8.41336 14.0866 6.87618 12.5494 6.87618 10.6611C6.87618 8.77284 8.41336 7.23565 10.3017 7.23565C12.19 7.23565 13.7271 8.77284 13.7271 10.6611C13.7271 12.5494 12.19 14.0866 10.3017 14.0866Z" fill="currentColor"/>
</svg>
