<svg width="23" height="23" viewBox="0 0 23 23" fill="none" xmlns="http://www.w3.org/2000/svg">
<path d="M22.1311 19.1252L17.8621 14.8562C17.6695 14.6635 17.4083 14.5565 17.1342 14.5565H16.4363C17.6181 13.045 18.3203 11.1438 18.3203 9.07569C18.3203 4.15584 14.3339 0.169434 9.41406 0.169434C4.49421 0.169434 0.507812 4.15584 0.507812 9.07569C0.507812 13.9955 4.49421 17.9819 9.41406 17.9819C11.4822 17.9819 13.3833 17.2797 14.8948 16.0979V16.7959C14.8948 17.0699 15.0019 17.3311 15.1945 17.5238L19.4636 21.7928C19.866 22.1953 20.5169 22.1953 20.9151 21.7928L22.1269 20.581C22.5294 20.1785 22.5294 19.5277 22.1311 19.1252ZM9.41406 14.5565C6.38679 14.5565 3.93329 12.1072 3.93329 9.07569C3.93329 6.04842 6.38251 3.59491 9.41406 3.59491C12.4413 3.59491 14.8948 6.04413 14.8948 9.07569C14.8948 12.103 12.4456 14.5565 9.41406 14.5565Z" fill="currentColor"/>
</svg>
