<svg id="Calque_1" data-name="Calque 1" xmlns="http://www.w3.org/2000/svg" viewBox="0 0 600 600"><defs><style>.cls-1{fill:#f7aa5c;}.cls-2{fill:#fbbc5b;}.cls-3{fill:#f3945d;}.cls-4{fill:#ef835e;}.cls-5{fill:#c44141;}.cls-6{fill:#353442;}</style></defs><title>jauge</title><path class="cls-1" d="M305.44,139.82v69.9a186.58,186.58,0,0,0-119.89,49.09l-49.16-49.13A257.16,257.16,0,0,1,305.44,139.82Z"/><path class="cls-2" d="M175.73,268.47a186.19,186.19,0,0,0-51.31,122.27H54.51A256.69,256.69,0,0,1,126.6,219.35Z"/><path class="cls-3" d="M439.09,258.81A186.62,186.62,0,0,0,319.2,209.72v-69.9a257.2,257.2,0,0,1,169.05,69.86Z"/><path class="cls-4" d="M569,390.74H499.09a186.19,186.19,0,0,0-51.31-122.27l49.13-49.12A256.69,256.69,0,0,1,569,390.74Z"/><polygon class="cls-5" points="161.35 328.17 228.12 344.04 294.9 359.91 286.56 380.03 278.23 400.16 219.79 364.16 161.35 328.17"/><path class="cls-6" d="M355.34,390.74H268.22a43.56,43.56,0,0,1,87.12,0Z"/><circle class="cls-6" cx="312" cy="391" r="44"/></svg>